# xmcd
#
# Track frame offsets: 
#        150
#        12347
#        24220
#        41440
#        54940
#        72545
#        84477
#        98195
#        118280
#        129287
#
# Disc length: 1962 seconds
#
# Revision: 5
# Processed by: cddbd v1.5.2PL0 Copyright (c) Steve Scherf et al.
# Submitted via: ExactAudioCopy v1.0b1
#
DISCID=7a07a80a
DTITLE=Trisha Yearwood - The Sweetest Gift [CDA]
DYEAR=1994
DGENRE=Country*
TTITLE0=Sweet Little Jesus Boy
TTITLE1=Reindeer Boogie
TTITLE2=Take A Walk Through Bethlehem
TTITLE3=Santa Claus Is Back In Town
TTITLE4=It Wasn't His Child
TTITLE5=Away In A Manger
TTITLE6=The Sweetest Gift
TTITLE7=There's A New Kid In Town
TTITLE8=Let It Snow! Let It Snow! Let It Snow!
TTITLE9=The Christmas Song
EXTD=
EXTT0=
EXTT1=
EXTT2=
EXTT3=
EXTT4=
EXTT5=
EXTT6=
EXTT7=
EXTT8=
EXTT9=
PLAYORDER=
